<svg xmlns="http://www.w3.org/2000/svg" xmlns:xlink="http://www.w3.org/1999/xlink" width="300" zoomAndPan="magnify" viewBox="0 0 224.87999 225" height="300" preserveAspectRatio="xMidYMid meet" version="1.0"><defs><clipPath id="id1"><path d="M 2.238281 31.121094 L 223 31.121094 L 223 192.285156 L 2.238281 192.285156 Z M 2.238281 31.121094 " clip-rule="nonzero"/></clipPath></defs><g clip-path="url(#id1)"><path fill="rgb(52.159119%, 16.079712%, 85.879517%)" d="M 57.433594 154.417969 C 66.847656 156.285156 75.34375 158.054688 83.851562 159.644531 C 99.003906 162.476562 114.238281 164.679688 129.667969 165.074219 C 134.160156 165.191406 138.714844 163.980469 143.152344 164.375 C 152.945312 165.21875 162.460938 163.234375 171.992188 161.949219 C 179.652344 160.914062 187.332031 158.855469 194.597656 156.167969 C 209.574219 150.636719 218.113281 139.394531 221.164062 123.761719 C 224.753906 105.410156 221.832031 88.171875 212.769531 71.910156 C 204.320312 56.726562 192.644531 44.273438 179.550781 33.0625 C 178.707031 32.347656 177.683594 31.824219 176.691406 31.3125 C 176.429688 31.164062 175.960938 31.398438 175.597656 31.457031 C 171.625 39.09375 172.648438 46.859375 177.945312 53.425781 C 185.828125 63.195312 193.710938 72.988281 201.109375 83.121094 C 206.390625 90.347656 210.375 98.40625 213.179688 107.003906 C 214.753906 111.804688 214.054688 115.820312 210.988281 119.820312 C 206.683594 125.398438 201.253906 129.425781 194.992188 132.433594 C 186.308594 136.609375 177.042969 138.667969 167.539062 139.863281 C 151.9375 141.804688 136.367188 140.988281 120.792969 139.46875 C 97.265625 137.175781 74.089844 132.828125 51.144531 127.234375 C 49.714844 126.886719 48.355469 126.273438 45.757812 125.339844 C 48.664062 124.417969 50.386719 123.804688 52.121094 123.308594 C 60.910156 120.785156 69.738281 118.390625 78.480469 115.761719 C 86.507812 113.351562 87.179688 112.214844 86.464844 104.011719 C 85.558594 93.558594 84.464844 92.769531 74.308594 94.960938 C 60.339844 97.980469 46.417969 101.132812 32.390625 103.878906 C 24.554688 105.410156 16.570312 106.230469 8.660156 107.398438 C 6.835938 107.660156 5.039062 108.070312 2.894531 108.476562 C 2.96875 113.570312 2.515625 118.273438 3.246094 122.785156 C 4.398438 129.894531 6.804688 136.242188 13.695312 140.535156 C 21.253906 145.25 28.054688 151.164062 35.222656 156.519531 C 43.527344 162.722656 50.503906 170.257812 56.792969 178.402344 C 58.601562 180.753906 59.683594 183.6875 61.039062 186.375 C 61.929688 188.140625 62.703125 189.949219 63.769531 192.285156 C 66.835938 189.089844 67.082031 186.007812 66.90625 182.765625 C 66.5 174.621094 64.308594 167.015625 60.296875 159.9375 C 59.449219 158.332031 58.648438 156.710938 57.433594 154.417969 Z M 96.257812 158.914062 C 94.476562 159.046875 92.640625 159.527344 90.929688 159.234375 C 82.800781 157.832031 74.703125 156.226562 66.570312 154.621094 C 63.742188 153.863281 60.910156 153.105469 58.078125 152.34375 C 58.210938 151.980469 58.339844 151.613281 58.472656 151.265625 C 61.199219 152.433594 63.929688 153.613281 66.660156 154.78125 C 68.25 154.652344 69.914062 154.167969 71.445312 154.433594 C 79.765625 155.863281 88.042969 157.484375 96.347656 159.074219 C 99.71875 159.554688 103.089844 160.039062 106.460938 160.519531 C 106.34375 160.988281 106.226562 161.46875 106.109375 161.9375 C 102.824219 160.929688 99.542969 159.921875 96.257812 158.914062 Z M 123.59375 163.351562 C 123.566406 163.074219 123.535156 162.78125 123.523438 162.503906 C 124.355469 162.535156 125.171875 162.578125 126.003906 162.609375 C 126.003906 162.8125 126.003906 163 126.003906 163.207031 C 125.214844 163.25 124.398438 163.292969 123.59375 163.351562 Z M 123.59375 163.351562 " fill-opacity="1" fill-rule="nonzero"/></g></svg>